<svg width="37" height="37" viewBox="0 0 37 37" fill="none" xmlns="http://www.w3.org/2000/svg">
<rect x="1" y="1" width="35" height="35" rx="7" fill="#033777" stroke="#033777"/>
<path d="M14.2222 25.1111C13.7945 25.1111 13.4284 24.9589 13.124 24.6546C12.8191 24.3497 12.6667 23.9833 12.6667 23.5556V13.4444C12.4463 13.4444 12.2615 13.37 12.1121 13.2212C11.9633 13.0719 11.8889 12.887 11.8889 12.6667C11.8889 12.4463 11.9633 12.2614 12.1121 12.1121C12.2615 11.9633 12.4463 11.8889 12.6667 11.8889H15.7778C15.7778 11.6685 15.8525 11.4837 16.0018 11.3343C16.1506 11.1855 16.3352 11.1111 16.5556 11.1111H19.6667C19.8871 11.1111 20.0719 11.1855 20.2212 11.3343C20.3701 11.4837 20.4445 11.6685 20.4445 11.8889H23.5556C23.776 11.8889 23.9605 11.9633 24.1094 12.1121C24.2587 12.2614 24.3334 12.4463 24.3334 12.6667C24.3334 12.887 24.2587 13.0719 24.1094 13.2212C23.9605 13.37 23.776 13.4444 23.5556 13.4444V23.5556C23.5556 23.9833 23.4034 24.3497 23.099 24.6546C22.7941 24.9589 22.4278 25.1111 22 25.1111H14.2222ZM14.2222 13.4444V23.5556H22V13.4444H14.2222ZM15.7778 21.2222C15.7778 21.4426 15.8525 21.6272 16.0018 21.776C16.1506 21.9253 16.3352 22 16.5556 22C16.776 22 16.9608 21.9253 17.1101 21.776C17.259 21.6272 17.3334 21.4426 17.3334 21.2222V15.7778C17.3334 15.5574 17.259 15.3726 17.1101 15.2232C16.9608 15.0744 16.776 15 16.5556 15C16.3352 15 16.1506 15.0744 16.0018 15.2232C15.8525 15.3726 15.7778 15.5574 15.7778 15.7778V21.2222ZM18.8889 21.2222C18.8889 21.4426 18.9636 21.6272 19.1129 21.776C19.2617 21.9253 19.4463 22 19.6667 22C19.8871 22 20.0719 21.9253 20.2212 21.776C20.3701 21.6272 20.4445 21.4426 20.4445 21.2222V15.7778C20.4445 15.5574 20.3701 15.3726 20.2212 15.2232C20.0719 15.0744 19.8871 15 19.6667 15C19.4463 15 19.2617 15.0744 19.1129 15.2232C18.9636 15.3726 18.8889 15.5574 18.8889 15.7778V21.2222ZM14.2222 13.4444V23.5556V13.4444Z" fill="white"/>
</svg>
