<svg width="37" height="37" viewBox="0 0 37 37" fill="none" xmlns="http://www.w3.org/2000/svg">
<rect x="1" y="1" width="35" height="35" rx="7" fill="white" stroke="#033777"/>
<path d="M18.8889 21.5868C18.7593 21.5868 18.6378 21.5664 18.5243 21.5256C18.4109 21.4854 18.3056 21.4167 18.2084 21.3194L14.7084 17.8194C14.5301 17.6412 14.441 17.4143 14.441 17.1389C14.441 16.8634 14.5301 16.6366 14.7084 16.4583C14.8866 16.2801 15.1173 16.1868 15.4006 16.1783C15.6845 16.1706 15.9155 16.2558 16.0938 16.434L17.9167 18.2569V11.3056C17.9167 11.0301 18.01 10.799 18.1967 10.6124C18.3827 10.4263 18.6135 10.3333 18.8889 10.3333C19.1644 10.3333 19.3955 10.4263 19.5821 10.6124C19.7681 10.799 19.8611 11.0301 19.8611 11.3056V18.2569L21.6841 16.434C21.8623 16.2558 22.0934 16.1706 22.3773 16.1783C22.6605 16.1868 22.8912 16.2801 23.0695 16.4583C23.2477 16.6366 23.3368 16.8634 23.3368 17.1389C23.3368 17.4143 23.2477 17.6412 23.0695 17.8194L19.5695 21.3194C19.4723 21.4167 19.3669 21.4854 19.2535 21.5256C19.1401 21.5664 19.0186 21.5868 18.8889 21.5868ZM13.0556 25.8889C12.5209 25.8889 12.0633 25.6987 11.6828 25.3182C11.3017 24.9371 11.1111 24.4792 11.1111 23.9444V22C11.1111 21.7245 11.2042 21.4935 11.3902 21.3068C11.5768 21.1208 11.8079 21.0278 12.0834 21.0278C12.3588 21.0278 12.5899 21.1208 12.7766 21.3068C12.9626 21.4935 13.0556 21.7245 13.0556 22V23.9444H24.7223V22C24.7223 21.7245 24.8156 21.4935 25.0023 21.3068C25.1883 21.1208 25.419 21.0278 25.6945 21.0278C25.9699 21.0278 26.2007 21.1208 26.3867 21.3068C26.5734 21.4935 26.6667 21.7245 26.6667 22V23.9444C26.6667 24.4792 26.4765 24.9371 26.096 25.3182C25.7149 25.6987 25.257 25.8889 24.7223 25.8889H13.0556Z" fill="black"/>
</svg>
