<svg width="308" height="308" viewBox="0 0 308 308" fill="none" xmlns="http://www.w3.org/2000/svg">
<g filter="url(#filter0_d_1111_1350)">
<circle cx="154" cy="150" r="150" fill="white"/>
<g clip-path="url(#clip0_1111_1350)">
<path d="M66.0523 52.1738L56.1719 62.0543L73.5774 92.1546L84.865 90.4991L153.765 159.406L147.888 165.05C144.878 168.06 144.878 172.62 147.888 175.63L150.943 178.693C153.953 181.703 158.558 181.703 160.816 178.693L169.755 187.625C169.003 192.14 169.755 197.506 173.518 201.268L214.199 241.716C222.476 249.993 236.021 249.993 244.299 241.716C254.082 232.685 253.991 219.185 245.714 210.908L205.266 170.22C201.504 166.457 196.138 164.952 191.623 166.457L181.743 157.525C184 154.515 184 149.91 181.743 147.645L178.921 144.83C178.237 144.117 177.416 143.549 176.507 143.161C175.597 142.774 174.619 142.574 173.631 142.574C172.643 142.574 171.664 142.774 170.755 143.161C169.846 143.549 169.025 144.117 168.341 144.83L163.404 149.767L94.5046 80.867L96.1451 69.5793L66.0523 52.1738ZM212.791 52.4071C197.944 51.173 178.259 61.0158 169.048 69.5718C157.715 80.9046 159.567 95.7215 168.574 110.027L152.591 126.017L163.878 138.712C169.898 133.445 178.778 133.445 184.798 138.712L187.861 141.767L188.568 142.475L195.153 135.89C208.758 143.89 222.92 145.041 233.719 134.242C244.254 124.46 255.677 100.334 250.409 86.0367L229.249 107.905C226.239 110.915 221.679 110.915 218.669 107.905L196.793 86.0367C196.08 85.3526 195.512 84.5313 195.124 83.6222C194.737 82.7131 194.537 81.7349 194.537 80.7466C194.537 79.7582 194.737 78.78 195.124 77.8709C195.512 76.9618 196.08 76.1405 196.793 75.4564L218.676 53.5885C216.795 52.9263 214.914 52.5877 212.791 52.4071ZM130.016 146.237L102.73 173.516C99.7975 172.864 96.8008 172.549 93.7973 172.575C72.7271 172.575 56.1719 189.13 56.1719 210.201C56.1719 231.271 72.7271 247.826 93.7973 247.826C114.868 247.826 131.423 231.271 131.423 210.201C131.423 206.34 130.813 202.63 129.775 199.146L145.766 183.155L143.418 180.1C137.398 174.08 137.443 164.96 142.71 158.932L130.016 146.237ZM188.335 180.574C189.276 180.574 190.164 180.755 190.916 181.515L235.367 225.958C236.872 227.463 236.872 229.856 235.367 231.361C233.862 232.866 231.454 232.866 229.949 231.361L185.513 186.918C184.008 185.413 184.008 183.02 185.513 181.515C186.266 180.762 187.394 180.574 188.335 180.574ZM98.9745 190.673L113.317 205.023L108.14 224.536L88.6276 229.713L74.2772 215.363L79.4545 195.85L98.9745 190.673Z" fill="#033777"/>
</g>
</g>
<defs>
<filter id="filter0_d_1111_1350" x="0" y="0" width="308" height="308" filterUnits="userSpaceOnUse" color-interpolation-filters="sRGB">
<feFlood flood-opacity="0" result="BackgroundImageFix"/>
<feColorMatrix in="SourceAlpha" type="matrix" values="0 0 0 0 0 0 0 0 0 0 0 0 0 0 0 0 0 0 127 0" result="hardAlpha"/>
<feOffset dy="4"/>
<feGaussianBlur stdDeviation="2"/>
<feComposite in2="hardAlpha" operator="out"/>
<feColorMatrix type="matrix" values="0 0 0 0 0 0 0 0 0 0 0 0 0 0 0 0 0 0 0.5 0"/>
<feBlend mode="normal" in2="BackgroundImageFix" result="effect1_dropShadow_1111_1350"/>
<feBlend mode="normal" in="SourceGraphic" in2="effect1_dropShadow_1111_1350" result="shape"/>
</filter>
<clipPath id="clip0_1111_1350">
<rect width="195.652" height="195.652" fill="white" transform="translate(56.1719 52.1738)"/>
</clipPath>
</defs>
</svg>
