<svg
  width="22px"
  height="24px"
  viewBox="0 0 22 24"
  version="1.1"
  xmlns="http://www.w3.org/2000/svg"
  xmlns:xlink="http://www.w3.org/1999/xlink"
>
  <g id="add-note" stroke="none" stroke-width="1" fill="none" fill-rule="evenodd">
    <g id="iconmonstr-note-29" fill="#ADADAD" fill-rule="nonzero">
      <path
        d="M5,12 L15,12 L15,13 L5,13 L5,12 Z M12.816,9 L5,9 L5,10 L14.047,10 C13.597,9.717 13.184,9.382 12.816,9 Z M18,10.975 L18,13.544 C18,17.65 12,16 12,16 C12,16 13.518,22 9.362,22 L2,22 L2,2 L11.5,2 C11.812,1.251 12.263,0.576 12.816,0 L0,0 L0,24 L10.189,24 C13.352,24 20,16.777 20,14.386 L20,10.5 C19.377,10.76 18.703,10.921 18,10.975 Z M5,7 L11.5,7 C11.366,6.68 11.263,6.344 11.181,6 L5,6 L5,7 Z M22,4.5 C22,6.985 19.983,9 17.5,9 C15.017,9 13,6.985 13,4.5 C13,2.015 15.017,0 17.5,0 C19.983,0 22,2.015 22,4.5 Z M20,4 L18,4 L18,2 L17,2 L17,4 L15,4 L15,5 L17,5 L17,7 L18,7 L18,5 L20,5 L20,4 Z"
        id="Shape"
      ></path>
    </g>
  </g>
</svg>
