<svg width="19" height="19" viewBox="0 0 19 19" fill="none" xmlns="http://www.w3.org/2000/svg">
<path d="M13.1458 11.5833H12.3229L12.0313 11.3021C13.0874 10.0771 13.6678 8.51323 13.6667 6.89584C13.6667 5.55669 13.2696 4.24762 12.5256 3.13416C11.7816 2.02071 10.7241 1.15287 9.48692 0.640402C8.24971 0.127934 6.88832 -0.00615138 5.57491 0.255103C4.2615 0.516357 3.05505 1.16122 2.10813 2.10813C1.16122 3.05505 0.516357 4.2615 0.255103 5.57491C-0.00615138 6.88832 0.127934 8.24971 0.640402 9.48692C1.15287 10.7241 2.02071 11.7816 3.13416 12.5256C4.24762 13.2696 5.55669 13.6667 6.89584 13.6667C8.57292 13.6667 10.1146 13.0521 11.3021 12.0313L11.5833 12.3229V13.1458L16.7917 18.3438L18.3438 16.7917L13.1458 11.5833ZM6.89584 11.5833C4.30209 11.5833 2.20834 9.48959 2.20834 6.89584C2.20834 4.30209 4.30209 2.20834 6.89584 2.20834C9.48959 2.20834 11.5833 4.30209 11.5833 6.89584C11.5833 9.48959 9.48959 11.5833 6.89584 11.5833Z" fill="black"/>
</svg>
