<svg xmlns="http://www.w3.org/2000/svg" version="1.1" xmlns:xlink="http://www.w3.org/1999/xlink" xmlnsSvgjs="http://svgjs.com/svgjs" width="512" height="512" x="0" y="0" viewBox="0 0 497 497" style="enable-background:new 0 0 512 512" xml:space="preserve" class=""><g><g xmlns="http://www.w3.org/2000/svg"><path d="m52.833 0-40.604 45.906c-2.51 2.837-2.51 7.101 0 9.938l40.605 45.906h22.5c4.142 0 7.5-3.358 7.5-7.5v-86.75c0-4.142-3.358-7.5-7.5-7.5z" fill="#f9b348" data-original="#f9b348"></path><path d="m0 7.5v86.75c0 4.142 3.358 7.5 7.5 7.5h45.333v-101.75h-45.333c-4.142 0-7.5 3.358-7.5 7.5z" fill="#f3da49" data-original="#f3da49"></path><path d="m384.167 395.25-60 50.875 60 50.875h22.5c4.142 0 7.5-3.358 7.5-7.5v-86.75c0-4.142-3.358-7.5-7.5-7.5z" fill="#61ce5b" data-original="#61ce5b"></path><path d="m0 402.75v86.75c0 4.142 3.358 7.5 7.5 7.5h376.667v-101.75h-376.667c-4.142 0-7.5 3.358-7.5 7.5z" fill="#94e368" data-original="#94e368"></path><path d="m467 263.5-60 50.875 60 50.875h22.5c4.142 0 7.5-3.358 7.5-7.5v-86.75c0-4.142-3.358-7.5-7.5-7.5z" fill="#793bcc" data-original="#793bcc"></path><path d="m0 271v86.75c0 4.142 3.358 7.5 7.5 7.5h459.5v-101.75h-459.5c-4.142 0-7.5 3.358-7.5 7.5z" fill="#9255e3" data-original="#9255e3"></path><path d="m218.5 131.75-60 50.875 60 50.875h22.5c4.142 0 7.5-3.358 7.5-7.5v-86.75c0-4.142-3.358-7.5-7.5-7.5z" fill="#28abfa" data-original="#28abfa"></path><path d="m0 139.25v86.75c0 4.142 3.358 7.5 7.5 7.5h211v-101.75h-211c-4.142 0-7.5 3.358-7.5 7.5z" fill="#14cfff" data-original="#14cfff" class=""></path></g></g></svg>
