<svg xmlns="http://www.w3.org/2000/svg" version="1.1" xmlns:xlink="http://www.w3.org/1999/xlink" xmlnsSvgjs="http://svgjs.com/svgjs" width="512" height="512" x="0" y="0" viewBox="0 0 60 60" style="enable-background:new 0 0 512 512" xml:space="preserve" class=""><g><path xmlns="http://www.w3.org/2000/svg" d="m1 26v8c0 13.81 12.98 25 29 25s29-11.19 29-25v-8z" fill="#2f239e" data-original="#2f239e"></path><path xmlns="http://www.w3.org/2000/svg" d="m30 26v33c-16.02 0-29-11.19-29-25v-8z" fill="#3f2abc" data-original="#3f2abc"></path><path xmlns="http://www.w3.org/2000/svg" d="m57.8 18.87-.8 1.13-27 6-1-24 1-1c13.15 0 24.24 7.53 27.8 17.87z" fill="#35e5cc" data-original="#35e5cc"></path><path xmlns="http://www.w3.org/2000/svg" d="m59 26c0 13.81-12.98 25-29 25l-1-1 1-24 27.8-7.13a21.777 21.777 0 0 1 1.2 7.13z" fill="#3f2abc" data-original="#3f2abc"></path><path xmlns="http://www.w3.org/2000/svg" d="m30 26v25c-16.02 0-29-11.19-29-25a22.476 22.476 0 0 1 4.12-12.87l1.88-.13z" fill="#4d3fd1" data-original="#4d3fd1" class=""></path><path xmlns="http://www.w3.org/2000/svg" d="m30 1v25l-24.88-12.87c5.08-7.27 14.32-12.13 24.88-12.13z" fill="#24d3bd" data-original="#24d3bd"></path></g></svg>
