<svg xmlns="http://www.w3.org/2000/svg" version="1.1" xmlns:xlink="http://www.w3.org/1999/xlink" xmlnsSvgjs="http://svgjs.com/svgjs" width="512" height="512" x="0" y="0" viewBox="0 0 512 512" style="enable-background:new 0 0 512 512" xml:space="preserve" class=""><g><g xmlns="http://www.w3.org/2000/svg"><path d="m504.5 7.503v155.67l-120 146.205 90-281.875z" fill="#28abfa" data-original="#28abfa"></path><path d="m474.5 27.503v369.17h-398.08v-77.84l77.83-116.75h77.83l77.84-116.75h77.83z" fill="#14cfff" data-original="#14cfff"></path><path d="m504.5 163.173v272.41h-30l-90-126.205 90-126.205z" fill="#793bcc" data-original="#793bcc"></path><path d="m474.5 183.173v252.41h-398.08v-38.91l77.83-77.84h77.83l77.84-77.83h77.83z" fill="#9255e3" data-original="#9255e3"></path><path d="m504.5 350.25c4.142 0 7.5-3.358 7.5-7.5v-335.25c0-2.766-1.522-5.308-3.961-6.613s-5.398-1.162-7.699.373l-114.861 76.574h-75.563c-2.508 0-4.85 1.253-6.24 3.34l-75.606 113.41h-73.82c-2.508 0-4.849 1.253-6.24 3.34l-77.833 116.75c-.821 1.232-1.26 2.679-1.26 4.16v116.75c0 4.142 3.358 7.5 7.5 7.5h428.083c4.142 0 7.5-3.358 7.5-7.5v-62.834c0-4.142-3.358-7.5-7.5-7.5s-7.5 3.358-7.5 7.5v55.333h-413.083v-28.311l73.44-73.439h74.727c1.989 0 3.897-.79 5.303-2.197l75.636-75.637h74.727c1.481 0 2.928-.438 4.16-1.26l105.09-70.059v165.57c0 4.142 3.358 7.5 7.5 7.5zm-119.021-116.75h-75.563c-1.989 0-3.897.79-5.303 2.197l-75.636 75.637h-74.727c-1.989 0-3.897.79-5.303 2.197l-65.03 65.03v-57.456l74.347-111.521h73.82c2.508 0 4.85-1.253 6.24-3.34l75.606-113.41h73.82c1.481 0 2.928-.438 4.16-1.26l105.09-70.06v137.639z" fill="#000000" data-original="#000000"></path><path d="m504.5 467h-459.5v-459.5c0-4.142-3.358-7.5-7.5-7.5h-30c-4.142 0-7.5 3.358-7.5 7.5s3.358 7.5 7.5 7.5h22.5v23.917h-22.5c-4.142 0-7.5 3.358-7.5 7.5s3.358 7.5 7.5 7.5h22.5v23.917h-22.5c-4.142 0-7.5 3.358-7.5 7.5s3.358 7.5 7.5 7.5h22.5v23.917h-22.5c-4.142 0-7.5 3.358-7.5 7.5s3.358 7.5 7.5 7.5h22.5v23.917h-22.5c-4.142 0-7.5 3.358-7.5 7.5s3.358 7.5 7.5 7.5h22.5v23.917h-22.5c-4.142 0-7.5 3.358-7.5 7.5s3.358 7.5 7.5 7.5h22.5v23.915h-22.5c-4.142 0-7.5 3.358-7.5 7.5s3.358 7.5 7.5 7.5h22.5v23.916h-22.5c-4.142 0-7.5 3.358-7.5 7.5s3.358 7.5 7.5 7.5h22.5v23.917h-22.5c-4.142 0-7.5 3.358-7.5 7.5s3.358 7.5 7.5 7.5h22.5v23.917h-22.5c-4.142 0-7.5 3.358-7.5 7.5s3.358 7.5 7.5 7.5h22.5v23.917h-22.5c-4.142 0-7.5 3.358-7.5 7.5s3.358 7.5 7.5 7.5h22.5v23.917h-22.5c-4.142 0-7.5 3.358-7.5 7.5s3.358 7.5 7.5 7.5h22.5v23.916h-22.5c-4.142 0-7.5 3.358-7.5 7.5s3.358 7.5 7.5 7.5h22.5v22.5c0 4.142 3.358 7.5 7.5 7.5s7.5-3.358 7.5-7.5v-22.5h23.917v22.5c0 4.142 3.358 7.5 7.5 7.5s7.5-3.358 7.5-7.5v-22.5h23.917v22.5c0 4.142 3.358 7.5 7.5 7.5s7.5-3.358 7.5-7.5v-22.5h23.916v22.5c0 4.142 3.358 7.5 7.5 7.5s7.5-3.358 7.5-7.5v-22.5h23.917v22.5c0 4.142 3.358 7.5 7.5 7.5s7.5-3.358 7.5-7.5v-22.5h23.917v22.5c0 4.142 3.358 7.5 7.5 7.5s7.5-3.358 7.5-7.5v-22.5h23.916v22.5c0 4.142 3.358 7.5 7.5 7.5s7.5-3.358 7.5-7.5v-22.5h23.917v22.5c0 4.142 3.358 7.5 7.5 7.5s7.5-3.358 7.5-7.5v-22.5h23.917v22.5c0 4.142 3.358 7.5 7.5 7.5s7.5-3.358 7.5-7.5v-22.5h23.917v22.5c0 4.142 3.358 7.5 7.5 7.5s7.5-3.358 7.5-7.5v-22.5h23.917v22.5c0 4.142 3.358 7.5 7.5 7.5s7.5-3.358 7.5-7.5v-22.5h23.917v22.5c0 4.142 3.358 7.5 7.5 7.5s7.5-3.358 7.5-7.5v-22.5h23.915v22.5c0 4.142 3.358 7.5 7.5 7.5s7.5-3.358 7.5-7.5v-30c0-4.142-3.358-7.5-7.5-7.5z" fill="#000000" data-original="#000000"></path></g></g></svg>
