<svg xmlns="http://www.w3.org/2000/svg" version="1.1" xmlns:xlink="http://www.w3.org/1999/xlink" xmlnsSvgjs="http://svgjs.com/svgjs" width="512" height="512" x="0" y="0" viewBox="0 0 497.028 497.028" style="enable-background:new 0 0 512 512" xml:space="preserve" class=""><g><g xmlns="http://www.w3.org/2000/svg"><path d="m377.014 271.333 90 225.667h22.5c4.142 0 7.5-3.358 7.5-7.5v-158.167z" fill="#373e9f" data-original="#373e9f"></path><path d="m467.014 497h-94.25l-60-195.667h154.25z" fill="#3857bc" data-original="#3857bc"></path><path d="m252.764 301.333 90 195.667h30v-195.667z" fill="#3b88f5" data-original="#3b88f5"></path><path d="m342.764 497h-94.25l-60-195.667h154.25z" fill="#28abfa" data-original="#28abfa"></path><path d="m377.014 105.667 90 225.666h30v-165.666z" fill="#61ce5b" data-original="#61ce5b"></path><path d="m188.514 135.667h278.5v195.667h-278.5z" fill="#94e368" data-original="#94e368"></path><path d="m467.014 0-90 82.833 90 82.833h30v-158.166c0-4.142-3.358-7.5-7.5-7.5z" fill="#f3da49" data-original="#f3da49"></path><path d="m467.014 165.667h-278.5l60-165.667h218.5z" fill="#f9eda4" data-original="#f9eda4" class=""></path><path d="m98.514 158.514 120 338.514h30v-248.514z" fill="#f9b348" data-original="#f9b348" class=""></path><path d="m218.514 158.514v338.514h-211c-4.142 0-7.5-3.358-7.5-7.5v-241.014z" fill="#f3da49" data-original="#f3da49"></path><path d="m218.514 0-90 124.257 90 124.257h30v-248.514z" fill="#ff8b47" data-original="#ff8b47"></path><path d="m218.514 0v248.514h-218.5v-241.014c0-4.142 3.358-7.5 7.5-7.5z" fill="#f9b348" data-original="#f9b348" class=""></path><g fill="#fff"><path d="m60.014 226.014h-30c-4.143 0-7.5-3.358-7.5-7.5s3.357-7.5 7.5-7.5h30c4.143 0 7.5 3.358 7.5 7.5s-3.357 7.5-7.5 7.5z" fill="#ffffff" data-original="#ffffff"></path><path d="m308.514 143.166h-30c-4.143 0-7.5-3.358-7.5-7.5s3.357-7.5 7.5-7.5h30c4.143 0 7.5 3.358 7.5 7.5s-3.357 7.5-7.5 7.5z" fill="#ffffff" data-original="#ffffff"></path><path d="m308.514 308.833h-30c-4.143 0-7.5-3.358-7.5-7.5s3.357-7.5 7.5-7.5h30c4.143 0 7.5 3.358 7.5 7.5s-3.357 7.5-7.5 7.5z" fill="#ffffff" data-original="#ffffff"></path><path d="m308.514 474.5h-30c-4.143 0-7.5-3.358-7.5-7.5s3.357-7.5 7.5-7.5h30c4.143 0 7.5 3.358 7.5 7.5s-3.357 7.5-7.5 7.5z" fill="#ffffff" data-original="#ffffff"></path><path d="m432.764 474.5h-30c-4.143 0-7.5-3.358-7.5-7.5s3.357-7.5 7.5-7.5h30c4.143 0 7.5 3.358 7.5 7.5s-3.357 7.5-7.5 7.5z" fill="#ffffff" data-original="#ffffff"></path><path d="m60.014 474.5h-30c-4.143 0-7.5-3.358-7.5-7.5s3.357-7.5 7.5-7.5h30c4.143 0 7.5 3.358 7.5 7.5s-3.357 7.5-7.5 7.5z" fill="#ffffff" data-original="#ffffff"></path></g></g></g></svg>
