<svg width="22" height="25" viewBox="0 0 22 25" fill="none" xmlns="http://www.w3.org/2000/svg">
<g clip-path="url(#clip0_1327_2174)">
<path d="M2.85547 3.08989C2.85547 2.2704 3.13218 1.48447 3.62472 0.905007C4.11727 0.325541 4.78531 0 5.48187 0L15.9875 0C16.6841 0 17.3521 0.325541 17.8446 0.905007C18.3372 1.48447 18.6139 2.2704 18.6139 3.08989V23.9466C18.6138 24.0864 18.5816 24.2234 18.5205 24.3433C18.4595 24.4632 18.3719 24.5613 18.2672 24.6272C18.1625 24.6932 18.0446 24.7245 17.9259 24.7178C17.8073 24.7111 17.6924 24.6667 17.5935 24.5893L10.7347 20.2403L3.87583 24.5893C3.77695 24.6667 3.66208 24.7111 3.54344 24.7178C3.42481 24.7245 3.30686 24.6932 3.20215 24.6272C3.09745 24.5613 3.00991 24.4632 2.94886 24.3433C2.88781 24.2234 2.85553 24.0864 2.85547 23.9466V3.08989ZM5.48187 1.54494C5.13359 1.54494 4.79957 1.70771 4.5533 1.99745C4.30703 2.28718 4.16867 2.68014 4.16867 3.08989V22.5037L10.3709 18.6691C10.4787 18.5847 10.6052 18.5397 10.7347 18.5397C10.8641 18.5397 10.9907 18.5847 11.0984 18.6691L17.3007 22.5037V3.08989C17.3007 2.68014 17.1623 2.28718 16.9161 1.99745C16.6698 1.70771 16.3358 1.54494 15.9875 1.54494H5.48187Z" fill="black"/>
<path d="M10.7361 6.17969C10.9103 6.17969 11.0773 6.26107 11.2004 6.40594C11.3236 6.55081 11.3927 6.74729 11.3927 6.95216V9.26958H13.3625C13.5367 9.26958 13.7037 9.35096 13.8268 9.49583C13.95 9.64069 14.0191 9.83717 14.0191 10.042C14.0191 10.2469 13.95 10.4434 13.8268 10.5883C13.7037 10.7331 13.5367 10.8145 13.3625 10.8145H11.3927V13.1319C11.3927 13.3368 11.3236 13.5333 11.2004 13.6782C11.0773 13.823 10.9103 13.9044 10.7361 13.9044C10.562 13.9044 10.395 13.823 10.2718 13.6782C10.1487 13.5333 10.0795 13.3368 10.0795 13.1319V10.8145H8.10973C7.93558 10.8145 7.76858 10.7331 7.64544 10.5883C7.5223 10.4434 7.45312 10.2469 7.45312 10.042C7.45312 9.83717 7.5223 9.64069 7.64544 9.49583C7.76858 9.35096 7.93558 9.26958 8.10973 9.26958H10.0795V6.95216C10.0795 6.74729 10.1487 6.55081 10.2718 6.40594C10.395 6.26107 10.562 6.17969 10.7361 6.17969Z" fill="black"/>
</g>
<defs>
<clipPath id="clip0_1327_2174">
<rect width="21.0112" height="24.7191" fill="white" transform="translate(0.230469)"/>
</clipPath>
</defs>
</svg>
