<svg width="17" height="17" viewBox="0 0 17 17" fill="none" xmlns="http://www.w3.org/2000/svg">
<path d="M4.45254 2.83334H12.5478C12.9772 2.83334 13.389 3.00392 13.6926 3.30755C13.9963 3.61118 14.1668 4.02299 14.1668 4.45239V12.5476C14.1668 12.977 13.9963 13.3888 13.6926 13.6925C13.389 13.9961 12.9772 14.1667 12.5478 14.1667H4.45254C4.02315 14.1667 3.61133 13.9961 3.3077 13.6925C3.00407 13.3888 2.8335 12.977 2.8335 12.5476V4.45239C2.8335 4.02299 3.00407 3.61118 3.3077 3.30755C3.61133 3.00392 4.02315 2.83334 4.45254 2.83334V2.83334Z" stroke="black" stroke-width="0.5" stroke-linecap="round" stroke-linejoin="round"/>
<path d="M8 10.2L6 8.2L6.7 7.5L8 8.8L11.3 5.5L12 6.2L8 10.2Z" fill="black"/>
</svg>
