<svg width="15" height="19" viewBox="0 0 15 19" fill="none" xmlns="http://www.w3.org/2000/svg">
<path fill-rule="evenodd" clip-rule="evenodd" d="M4.89616 2.20833C4.89616 3.35891 3.9634 4.29167 2.81283 4.29167C1.66225 4.29167 0.729492 3.35891 0.729492 2.20833C0.729492 1.05774 1.66225 0.125 2.81283 0.125C3.9634 0.125 4.89616 1.05774 4.89616 2.20833ZM2.81283 11.5833C3.9634 11.5833 4.89616 10.6506 4.89616 9.5C4.89616 8.34943 3.9634 7.41667 2.81283 7.41667C1.66225 7.41667 0.729492 8.34943 0.729492 9.5C0.729492 10.6506 1.66225 11.5833 2.81283 11.5833ZM2.81283 18.875C3.9634 18.875 4.89616 17.9422 4.89616 16.7917C4.89616 15.6411 3.9634 14.7083 2.81283 14.7083C1.66225 14.7083 0.729492 15.6411 0.729492 16.7917C0.729492 17.9422 1.66225 18.875 2.81283 18.875Z" fill="#cdcdcd"/>
<path fill-rule="evenodd" clip-rule="evenodd" d="M14.2712 2.20833C14.2712 3.35891 13.3384 4.29167 12.1878 4.29167C11.0373 4.29167 10.1045 3.35891 10.1045 2.20833C10.1045 1.05774 11.0373 0.125 12.1878 0.125C13.3384 0.125 14.2712 1.05774 14.2712 2.20833ZM12.1878 11.5833C13.3384 11.5833 14.2712 10.6506 14.2712 9.5C14.2712 8.34943 13.3384 7.41667 12.1878 7.41667C11.0373 7.41667 10.1045 8.34943 10.1045 9.5C10.1045 10.6506 11.0373 11.5833 12.1878 11.5833ZM12.1878 18.875C13.3384 18.875 14.2712 17.9422 14.2712 16.7917C14.2712 15.6411 13.3384 14.7083 12.1878 14.7083C11.0373 14.7083 10.1045 15.6411 10.1045 16.7917C10.1045 17.9422 11.0373 18.875 12.1878 18.875Z" fill="#cdcdcd"/>
</svg>
