<svg width="25" height="25" viewBox="0 0 25 25" fill="none" xmlns="http://www.w3.org/2000/svg">
<rect width="25" height="25" rx="3" fill="#0048A2"/>
<g clip-path="url(#clip0_2895_839)">
<path d="M17.9611 7.30469C18.0496 7.51823 18.0132 7.70052 17.8517 7.85156L14.0001 11.7031V17.5C14.0001 17.7188 13.8986 17.8724 13.6955 17.9609C13.6277 17.987 13.5626 18 13.5001 18C13.3595 18 13.2423 17.9505 13.1486 17.8516L11.1486 15.8516C11.0496 15.7526 11.0002 15.6354 11.0002 15.5V11.7031L7.1486 7.85156C6.98714 7.70052 6.95068 7.51823 7.03923 7.30469C7.12777 7.10156 7.28141 7 7.50016 7H17.5001C17.7189 7 17.8725 7.10156 17.9611 7.30469Z" fill="white"/>
</g>
<defs>
<clipPath id="clip0_2895_839">
<rect width="11" height="11" fill="white" transform="translate(7 7)"/>
</clipPath>
</defs>
</svg>
