<svg xmlns="http://www.w3.org/2000/svg" version="1.1" xmlns:xlink="http://www.w3.org/1999/xlink" xmlnsSvgjs="http://svgjs.com/svgjs" width="512" height="512" x="0" y="0" viewBox="0 0 24 24" style="enable-background:new 0 0 512 512" xml:space="preserve" class=""><g><path d="m12 11c-.6 0-1-.4-1-1v-7c0-.6.4-1 1-1s1 .4 1 1v7c0 .6-.4 1-1 1z" fill="#000000" data-original="#000000"></path><path d="m12 22c-5 0-9-4-9-9 0-3.2 1.7-6.2 4.5-7.8.5-.3 1.1-.1 1.4.4.3.4.1 1-.4 1.3-2.1 1.3-3.5 3.6-3.5 6.1 0 3.9 3.1 7 7 7s7-3.1 7-7c0-2.5-1.4-4.8-3.5-6.1-.5-.3-.7-.9-.4-1.3.3-.5.9-.6 1.4-.4 2.8 1.6 4.5 4.6 4.5 7.8 0 5-4 9-9 9z" fill="#000000" data-original="#000000"></path></g></svg>
