<svg width="15" height="20" viewBox="0 0 15 20" fill="none" xmlns="http://www.w3.org/2000/svg">
<path d="M14.6796 7.63477H0V20.0007H14.6796V7.63477Z" fill="black" fill-opacity="0.7"/>
<path d="M7.33849 14.7859C8.13961 14.7859 8.78905 14.1364 8.78905 13.3353C8.78905 12.5342 8.13961 11.8848 7.33849 11.8848C6.53737 11.8848 5.88794 12.5342 5.88794 13.3353C5.88794 14.1364 6.53737 14.7859 7.33849 14.7859Z" fill="white"/>
<path d="M7.50825 17.0565C3.92478 17.0565 1.00562 13.2336 1.00562 8.52942C1.00562 3.82528 3.92478 0 7.50825 0C11.094 0 14.0087 3.82528 14.0087 8.52942C14.0087 13.2336 11.094 17.0565 7.50825 17.0565ZM7.50825 2.03803C5.04998 2.03803 3.04813 4.94822 3.04813 8.52942C3.04813 12.1061 5.04998 15.0207 7.50825 15.0207C9.97103 15.0207 11.9729 12.1061 11.9729 8.52942C11.9729 4.94822 9.97103 2.03803 7.50825 2.03803Z" fill="black" fill-opacity="0.7"/>
</svg>
