<svg width="17" height="17" viewBox="0 0 17 17" fill="none" xmlns="http://www.w3.org/2000/svg">
<path d="M0.472096 15.0537L7.02731 8.49848L0.472096 1.94327C0.282348 1.74681 0.177354 1.48368 0.179727 1.21056C0.1821 0.937438 0.291651 0.676175 0.484785 0.483041C0.677918 0.289908 0.939181 0.180357 1.2123 0.177983C1.48542 0.17561 1.74855 0.280605 1.94501 0.470353L8.50022 7.02556L15.0554 0.470353C15.1515 0.370863 15.2665 0.291506 15.3936 0.236913C15.5206 0.182321 15.6573 0.153585 15.7956 0.152383C15.9339 0.151181 16.0711 0.177537 16.1991 0.229913C16.3271 0.282289 16.4435 0.359636 16.5413 0.457441C16.6391 0.555246 16.7164 0.67155 16.7688 0.799567C16.8212 0.927584 16.8475 1.06475 16.8463 1.20306C16.8451 1.34137 16.8164 1.47806 16.7618 1.60515C16.7072 1.73224 16.6278 1.84718 16.5283 1.94327L9.97314 8.49848L16.5283 15.0537C16.6278 15.1498 16.7072 15.2647 16.7618 15.3918C16.8164 15.5189 16.8451 15.6556 16.8463 15.7939C16.8475 15.9322 16.8212 16.0694 16.7688 16.1974C16.7164 16.3254 16.6391 16.4417 16.5413 16.5395C16.4435 16.6373 16.3271 16.7147 16.1991 16.767C16.0711 16.8194 15.9339 16.8458 15.7956 16.8446C15.6573 16.8434 15.5206 16.8146 15.3936 16.76C15.2665 16.7055 15.1515 16.6261 15.0554 16.5266L8.50022 9.97139L1.94501 16.5266C1.74855 16.7164 1.48542 16.8213 1.2123 16.819C0.939181 16.8166 0.677918 16.707 0.484785 16.5139C0.291651 16.3208 0.1821 16.0595 0.179727 15.7864C0.177354 15.5133 0.282348 15.2501 0.472096 15.0537Z" fill="#ffffff"/>
</svg>
