<svg width="15" height="15" viewBox="0 0 15 15" fill="none" xmlns="http://www.w3.org/2000/svg">
<path d="M13.875 5.8V13.45C13.875 13.5627 13.8302 13.6708 13.7505 13.7505C13.6708 13.8302 13.5627 13.875 13.45 13.875H5.8C5.68728 13.875 5.57918 13.8302 5.49948 13.7505C5.41978 13.6708 5.375 13.5627 5.375 13.45V5.8C5.375 5.68728 5.41978 5.57918 5.49948 5.49948C5.57918 5.41978 5.68728 5.375 5.8 5.375H13.45C13.5627 5.375 13.6708 5.41978 13.7505 5.49948C13.8302 5.57918 13.875 5.68728 13.875 5.8V5.8Z" stroke="black" stroke-linecap="round" stroke-linejoin="round"/>
<path d="M9.625 1.55V9.2C9.625 9.31272 9.58022 9.42082 9.50052 9.50052C9.42082 9.58022 9.31272 9.625 9.2 9.625H1.55C1.43728 9.625 1.32918 9.58022 1.24948 9.50052C1.16978 9.42082 1.125 9.31272 1.125 9.2V1.55C1.125 1.43728 1.16978 1.32918 1.24948 1.24948C1.32918 1.16978 1.43728 1.125 1.55 1.125H9.2C9.31272 1.125 9.42082 1.16978 9.50052 1.24948C9.58022 1.32918 9.625 1.43728 9.625 1.55V1.55Z" stroke="black" stroke-linecap="round" stroke-linejoin="round"/>
</svg>
