<svg width="30" height="30" viewBox="0 0 30 30" fill="none" xmlns="http://www.w3.org/2000/svg">
<g clip-path="url(#clip0_78_6787)">
<path d="M10 21.25C10.6904 21.25 11.25 20.6904 11.25 20C11.25 19.3096 10.6904 18.75 10 18.75C9.30964 18.75 8.75 19.3096 8.75 20C8.75 20.6904 9.30964 21.25 10 21.25Z" fill="black"/>
<path d="M15 21.25C15.6904 21.25 16.25 20.6904 16.25 20C16.25 19.3096 15.6904 18.75 15 18.75C14.3096 18.75 13.75 19.3096 13.75 20C13.75 20.6904 14.3096 21.25 15 21.25Z" fill="black"/>
<path d="M15 16.25C15.6904 16.25 16.25 15.6904 16.25 15C16.25 14.3096 15.6904 13.75 15 13.75C14.3096 13.75 13.75 14.3096 13.75 15C13.75 15.6904 14.3096 16.25 15 16.25Z" fill="black"/>
<path d="M20 11.25C20.6904 11.25 21.25 10.6904 21.25 10C21.25 9.30964 20.6904 8.75 20 8.75C19.3096 8.75 18.75 9.30964 18.75 10C18.75 10.6904 19.3096 11.25 20 11.25Z" fill="black"/>
<path d="M20 21.25C20.6904 21.25 21.25 20.6904 21.25 20C21.25 19.3096 20.6904 18.75 20 18.75C19.3096 18.75 18.75 19.3096 18.75 20C18.75 20.6904 19.3096 21.25 20 21.25Z" fill="black"/>
<path d="M20 16.25C20.6904 16.25 21.25 15.6904 21.25 15C21.25 14.3096 20.6904 13.75 20 13.75C19.3096 13.75 18.75 14.3096 18.75 15C18.75 15.6904 19.3096 16.25 20 16.25Z" fill="black"/>
</g>
<defs>
<clipPath id="clip0_78_6787">
<rect width="30" height="30" fill="white"/>
</clipPath>
</defs>
</svg>
