<svg width="20" height="20" viewBox="0 0 20 20" fill="none" xmlns="http://www.w3.org/2000/svg">
<path d="M18.7112 8.5549H14.3167L10.6945 12.1605C10.4863 12.3674 10.2047 12.4836 9.91116 12.4836C9.61762 12.4836 9.336 12.3674 9.12782 12.1605L1.11115 4.16602C1.08651 4.25659 1.07344 4.34993 1.07227 4.44379V15.5549C1.07227 15.8496 1.18933 16.1322 1.3977 16.3406C1.60608 16.549 1.88869 16.666 2.18338 16.666H17.7389C18.0336 16.666 18.3162 16.549 18.5246 16.3406C18.733 16.1322 18.85 15.8496 18.85 15.5549V8.54379L18.7112 8.5549ZM2.94449 15.5549H2.17227V14.7605L6.21116 10.7549L6.99449 11.5382L2.94449 15.5549ZM17.7278 15.5549H16.95L12.9 11.5382L13.6834 10.7549L17.7223 14.7605L17.7278 15.5549Z" fill="black" fill-opacity="0.7"/>
<path d="M12.7444 8.55621H12.3555C11.995 8.56086 11.6396 8.47006 11.3255 8.29304C11.0113 8.11601 10.7496 7.85906 10.5668 7.54823C10.384 7.2374 10.2867 6.88376 10.2847 6.52318C10.2828 6.16261 10.3762 5.80792 10.5555 5.4951L11.8277 3.33398H2.17775C2.07805 3.33552 1.97901 3.35047 1.8833 3.37843L9.91108 11.3729L12.7444 8.55621Z" fill="black" fill-opacity="0.7"/>
<path d="M14.9167 0.633447L11.7389 6.11122C11.665 6.21974 11.6225 6.34661 11.6163 6.47777C11.61 6.60893 11.6402 6.73925 11.7035 6.85431C11.7668 6.96936 11.8607 7.06465 11.9748 7.12961C12.0889 7.19457 12.2188 7.22666 12.35 7.22234H18.7111C18.8424 7.22666 18.9722 7.19457 19.0864 7.12961C19.2005 7.06465 19.2944 6.96936 19.3576 6.85431C19.4209 6.73925 19.4511 6.60893 19.4449 6.47777C19.4386 6.34661 19.3962 6.21974 19.3222 6.11122L16.1445 0.633447C16.0818 0.526255 15.9921 0.437342 15.8844 0.375552C15.7767 0.313762 15.6547 0.28125 15.5306 0.28125C15.4064 0.28125 15.2844 0.313762 15.1767 0.375552C15.069 0.437342 14.9794 0.526255 14.9167 0.633447Z" fill="black" fill-opacity="0.7"/>
</svg>
