<svg width="14" height="14" viewBox="0 0 14 14" fill="none" xmlns="http://www.w3.org/2000/svg">
<g clip-path="url(#clip0_2979_2502)">
<path d="M13.1549 0.365625C13.2611 0.621875 13.2174 0.840625 13.0236 1.02188L8.40174 5.64375V12.6C8.40174 12.8625 8.27986 13.0469 8.03611 13.1531C7.95486 13.1844 7.87674 13.2 7.80174 13.2C7.63299 13.2 7.49236 13.1406 7.37986 13.0219L4.97987 10.6219C4.86112 10.5031 4.80175 10.3625 4.80175 10.2V5.64375L0.179882 1.02188C-0.0138672 0.840625 -0.0576171 0.621875 0.0486327 0.365625C0.154882 0.121875 0.339257 0 0.601756 0H12.6017C12.8642 0 13.0486 0.121875 13.1549 0.365625Z" fill="white"/>
</g>
<defs>
<clipPath id="clip0_2979_2502">
<rect width="13.2" height="13.2" fill="white"/>
</clipPath>
</defs>
</svg>
