<svg width="30" height="30" viewBox="0 0 30 30" fill="none" xmlns="http://www.w3.org/2000/svg">
<path d="M22.2708 23.2874C20.7342 24.7653 18.8199 25.7428 16.7616 26.1005C14.7033 26.4583 12.5901 26.1808 10.6799 25.302C8.76971 24.4231 7.14524 22.9809 6.00481 21.1515C4.86438 19.3221 4.25735 17.1845 4.25781 14.9999H6.04854C6.04841 16.8882 6.59289 18.7325 7.61067 20.2914C8.62845 21.8503 10.0721 23.051 11.7526 23.7363C13.433 24.4216 15.272 24.5597 17.0286 24.1323C18.7853 23.7049 20.3777 22.7321 21.5974 21.3411H18.9955C18.758 21.3411 18.5303 21.2424 18.3624 21.0666C18.1945 20.8907 18.1002 20.6523 18.1002 20.4036C18.1002 20.155 18.1945 19.9165 18.3624 19.7407C18.5303 19.5649 18.758 19.4661 18.9955 19.4661H23.1661C23.4036 19.4661 23.6313 19.5649 23.7992 19.7407C23.9672 19.9165 24.0615 20.155 24.0615 20.4036V24.7668C24.0615 25.0154 23.9672 25.2539 23.7992 25.4297C23.6313 25.6055 23.4036 25.7043 23.1661 25.7043C22.9287 25.7043 22.7009 25.6055 22.533 25.4297C22.3651 25.2539 22.2708 25.0154 22.2708 24.7668V23.2855V23.2874ZM8.40693 8.66051H11.0089C11.2463 8.66051 11.4741 8.75928 11.642 8.9351C11.8099 9.11092 11.9042 9.34937 11.9042 9.59801C11.9042 9.84665 11.8099 10.0851 11.642 10.2609C11.4741 10.4367 11.2463 10.5355 11.0089 10.5355H6.83646C6.599 10.5355 6.37126 10.4367 6.20334 10.2609C6.03543 10.0851 5.9411 9.84665 5.9411 9.59801V5.23114C5.9411 4.9825 6.03543 4.74404 6.20334 4.56822C6.37126 4.39241 6.599 4.29364 6.83646 4.29364C7.07393 4.29364 7.30167 4.39241 7.46958 4.56822C7.6375 4.74404 7.73183 4.9825 7.73183 5.23114V6.71239C9.26819 5.23264 11.183 4.25356 13.2422 3.89478C15.3013 3.53601 17.4158 3.81309 19.327 4.69215C21.2382 5.57122 22.8635 7.01421 24.0042 8.84476C25.1449 10.6753 25.7516 12.8142 25.7501 14.9999H23.9594C23.9596 13.1113 23.415 11.2667 22.397 9.70775C21.379 8.14874 19.935 6.94802 18.2542 6.26283C16.5734 5.57764 14.7342 5.43995 12.9774 5.86778C11.2206 6.29561 9.62821 7.26902 8.40872 8.66051H8.40693Z" fill="black"/>
</svg>
