<svg width="20" height="24" viewBox="0 0 20 24" fill="none" xmlns="http://www.w3.org/2000/svg">
<path d="M9.97771 0.25C10.8943 0.249914 11.7761 0.618002 12.4413 1.27844C13.1065 1.93888 13.5046 2.84137 13.5534 3.8L13.5582 4H18.8096C18.9911 4.00006 19.1657 4.07224 19.2983 4.20197C19.4309 4.3317 19.5115 4.5093 19.5239 4.69888C19.5362 4.88846 19.4794 5.07589 19.3649 5.2233C19.2504 5.37071 19.0868 5.4671 18.907 5.493L18.8096 5.5H17.7985L16.6336 20.553C16.561 21.4921 16.1534 22.3681 15.4921 23.0068C14.8308 23.6455 13.9642 24.0001 13.0646 24H6.89084C5.99126 24.0001 5.12463 23.6455 4.46331 23.0068C3.802 22.3681 3.39447 21.4921 3.32178 20.553L2.15597 5.5H1.14579C0.972743 5.49999 0.805553 5.43436 0.675138 5.31523C0.544723 5.19611 0.459905 5.03155 0.436371 4.852L0.429688 4.75C0.429695 4.56876 0.492363 4.39366 0.606104 4.25707C0.719844 4.12048 0.876961 4.03165 1.0484 4.007L1.14579 4H6.3972C6.3972 3.00544 6.77443 2.05161 7.44591 1.34835C8.11738 0.645088 9.0281 0.25 9.97771 0.25ZM16.3625 5.5H3.59295L4.74921 20.432C4.79287 20.9954 5.03744 21.521 5.43426 21.9042C5.83109 22.2874 6.35109 22.5001 6.89084 22.5H13.0646C13.6043 22.5001 14.1243 22.2874 14.5212 21.9042C14.918 21.521 15.1625 20.9954 15.2062 20.432L16.3615 5.5H16.3625ZM7.82941 9.25C8.00245 9.25001 8.16964 9.31564 8.30006 9.43477C8.43047 9.55389 8.51529 9.71845 8.53882 9.898L8.54551 10V18C8.54545 18.19 8.47653 18.3729 8.35266 18.5118C8.2288 18.6506 8.05923 18.7351 7.87822 18.748C7.6972 18.761 7.51824 18.7015 7.3775 18.5816C7.23675 18.4617 7.14472 18.2902 7.11999 18.102L7.1133 18V10C7.1133 9.80109 7.18875 9.61032 7.32305 9.46967C7.45734 9.32902 7.63948 9.25 7.82941 9.25ZM12.126 9.25C12.2991 9.25001 12.4663 9.31564 12.5967 9.43477C12.7271 9.55389 12.8119 9.71845 12.8354 9.898L12.8421 10V18C12.8421 18.19 12.7731 18.3729 12.6493 18.5118C12.5254 18.6506 12.3558 18.7351 12.1748 18.748C11.9938 18.761 11.8149 18.7015 11.6741 18.5816C11.5334 18.4617 11.4413 18.2902 11.4166 18.102L11.4099 18V10C11.4099 9.80109 11.4854 9.61032 11.6197 9.46967C11.754 9.32902 11.9361 9.25 12.126 9.25ZM9.97771 1.75C9.43335 1.74993 8.90927 1.9663 8.51137 2.35537C8.11347 2.74444 7.87144 3.27721 7.83418 3.846L7.82941 4H12.126L12.1212 3.846C12.084 3.27721 11.8419 2.74444 11.4441 2.35537C11.0462 1.9663 10.5221 1.74993 9.97771 1.75Z" fill="black"/>
</svg>
