<svg xmlns="http://www.w3.org/2000/svg" version="1.1" xmlns:xlink="http://www.w3.org/1999/xlink" xmlnsSvgjs="http://svgjs.com/svgjs" width="512" height="512" x="0" y="0" viewBox="0 0 64 64" style="enable-background:new 0 0 512 512" xml:space="preserve" class=""><g><g xmlns="http://www.w3.org/2000/svg" id="_05_Bar_Chart" data-name="05 Bar Chart"><path d="m14 20h-6a1 1 0 0 0 -1 1v41h8v-41a1 1 0 0 0 -1-1z" fill="#ff3c38" data-original="#ff3c38" class=""></path><path d="m22 26h-6a1 1 0 0 0 -1 1v35h8v-35a1 1 0 0 0 -1-1z" fill="#3abeff" data-original="#3abeff"></path><path d="m32 10h-6a1 1 0 0 0 -1 1v51h8v-51a1 1 0 0 0 -1-1z" fill="#ff3c38" data-original="#ff3c38" class=""></path><path d="m40 20h-6a1 1 0 0 0 -1 1v41h8v-41a1 1 0 0 0 -1-1z" fill="#3abeff" data-original="#3abeff"></path><path d="m50 30h-6a1 1 0 0 0 -1 1v31h8v-31a1 1 0 0 0 -1-1z" fill="#ff3c38" data-original="#ff3c38" class=""></path><path d="m58 34h-6a1 1 0 0 0 -1 1v27h8v-27a1 1 0 0 0 -1-1z" fill="#3abeff" data-original="#3abeff"></path><path d="m61 62h-58a1 1 0 0 1 -1-1v-58a1 1 0 0 1 2 0v57h57a1 1 0 0 1 0 2z" fill="#46464e" data-original="#46464e"></path></g></g></svg>
