<svg xmlns="http://www.w3.org/2000/svg" version="1.1" xmlns:xlink="http://www.w3.org/1999/xlink" xmlnsSvgjs="http://svgjs.com/svgjs" width="512" height="512" x="0" y="0" viewBox="0 0 495 370" style="enable-background:new 0 0 512 512" xml:space="preserve" class="">
	<g>
		<path xmlns="http://www.w3.org/2000/svg" d="m130.773438 200.753906h116.300781v152.632813h-116.300781zm0 0" fill="#ffc850" data-original="#ffc850" class=""></path>
		<path xmlns="http://www.w3.org/2000/svg" d="m130.773438 200.753906h37.554687v152.632813h-37.554687zm0 0" fill="#feb644" data-original="#feb644" class=""></path>
		<path xmlns="http://www.w3.org/2000/svg" d="m125.769531 150.164062h-98.167969c-3.886718 0-7.035156 3.152344-7.035156 7.035157v203.191406h112.238282v-203.191406c0-3.882813-3.148438-7.035157-7.035157-7.035157zm0 0" fill="#f25c5c" data-original="#f25c5c" class=""></path>
		<path xmlns="http://www.w3.org/2000/svg" d="m56.089844 150.164062h-28.488282c-3.886718 0-7.035156 3.152344-7.035156 7.035157v203.191406h35.523438zm0 0" fill="#e54a4a" data-original="#e54a4a" class=""></path>
		<path xmlns="http://www.w3.org/2000/svg" d="m252.078125 100.492188c-3.882813 0-7.03125 3.148437-7.03125 7.035156v256.859375h114.269531v-263.894531zm0 0" fill="#6fd844" data-original="#6fd844" class=""></path>
		<path xmlns="http://www.w3.org/2000/svg" d="m280.476562 100.492188h-28.398437c-3.882813 0-7.03125 3.148437-7.03125 7.035156v256.859375h35.429687zm0 0" fill="#5fbf32" data-original="#5fbf32" class=""></path>
		<path xmlns="http://www.w3.org/2000/svg" d="m462.488281 0h-98.167969c-3.886718 0-7.035156 3.152343-7.035156 7.035156v344.640625h112.238282v-344.640625c0-3.882813-3.148438-7.035156-7.035157-7.035156zm0 0" fill="#00aaf0" data-original="#00aaf0"></path>
		<path xmlns="http://www.w3.org/2000/svg" d="m392.808594 0h-28.488282c-3.882812 0-7.035156 3.148437-7.035156 7.03125v344.644531h35.523438zm0 0" fill="#039add" data-original="#039add" class=""></path>
		<path xmlns="http://www.w3.org/2000/svg" d="m482.476562 365h-474.863281c-4.207031 0-7.613281-3.40625-7.613281-7.613281 0-4.203125 3.40625-7.609375 7.613281-7.609375h474.863281c4.203126 0 7.613282 3.40625 7.613282 7.609375 0 4.207031-3.410156 7.613281-7.613282 7.613281zm0 0" fill="#707487" data-original="#707487"></path>
	</g>
</svg>
