<svg xmlns="http://www.w3.org/2000/svg" version="1.1" xmlns:xlink="http://www.w3.org/1999/xlink" xmlnsSvgjs="http://svgjs.com/svgjs" width="512" height="512" x="0" y="0" viewBox="0 0 512 512" style="enable-background:new 0 0 512 512" xml:space="preserve" class=""><g><g xmlns="http://www.w3.org/2000/svg" id="Layer_x0020_1"><path d="m236 244c12-21 30-35 51-42-5-26-21-49-45-64-46-26-104-10-130 35s-10 103 35 129c25 15 53 17 78 8-5-22-1-45 11-66z" fill="#ff6900" data-original="#ff6900" class=""></path><path d="m225 310c5 26 21 49 45 64 46 26 104 10 130-35s10-103-35-129c-25-15-53-17-78-8-21 7-39 21-51 42s-16 44-11 66z" fill="#feb403" data-original="#feb403" class=""></path><path d="m297 99c0 21 17 38 38 38s37-17 37-38c0-20-16-37-37-37s-38 17-38 37z" fill="#14d67f" data-original="#14d67f"></path><path d="m446 128c-17 0-30 14-30 31s13 30 30 30 31-13 31-30-14-31-31-31z" fill="#14d67f" data-original="#14d67f"></path><path d="m173 87c17 0 31-13 31-30s-14-31-31-31-30 14-30 31 13 30 30 30z" fill="#0bd078" data-original="#0bd078" class=""></path><path d="m107 63-42-55c0-1-1-2-2-3h-1c-2-2-5-3-7-3-3 0-5 1-7 3-1 0-1 0-1 0s-1 1-2 2v1l-43 55c-4 6-2 13 3 17s13 3 17-2l21-28 12-16 12 16 21 28c4 5 12 6 17 2s6-11 2-17z" fill="#055de3" data-original="#055de3" class=""></path><path d="m451 403c-6-4-13-3-17 2s-3 13 2 17l28 21 16 12-16 12-28 21c-5 4-6 12-2 17s11 6 17 2l55-42c1-1 2-1 3-2 0 0 0-1 1-1 1-2 2-5 2-7s-1-4-2-6c0-1-1-2-2-3 0 0 0 0-1-1z" fill="#055de3" data-original="#055de3" class=""></path><path d="m464 443h-397v-45-95-94-95-64l-12-16-12 16v52 24 71 24 70 24 71 24 45c0 7 5 12 12 12h409l16-12z" fill="#6b809b" data-original="#6b809b"></path><path d="m43 410v-24h-23c-7 0-12 5-12 12 0 6 5 12 12 12z" fill="#055de3" data-original="#055de3" class=""></path><path d="m43 386v24 45c0 7 5 12 12 12h409l16-12-16-12h-397v-45-95-94-95-64l-12-16-12 16v52 24 71 24 70 24z" fill="#6b809b" data-original="#6b809b"></path><path d="m20 315h23v-24h-23c-7 0-12 6-12 12 0 7 5 12 12 12z" fill="#055de3" data-original="#055de3" class=""></path><path d="m20 221h23v-24h-23c-7 0-12 5-12 12 0 6 5 12 12 12z" fill="#055de3" data-original="#055de3" class=""></path><path d="m43 102v24 71 24 70 24 71 24 45c0 7 5 12 12 12h409l16-12-16-12h-397v-45-95-94-95-64l-12-16-12 16z" fill="#282c38" data-original="#282c38" class=""></path><path d="m43 126v-24h-23c-7 0-12 6-12 12 0 7 5 12 12 12z" fill="#055de3" data-original="#055de3" class=""></path><path d="m129 347c-17 0-31 14-31 31s14 31 31 31 30-14 30-31-13-31-30-31z" fill="#14d67f" data-original="#14d67f"></path></g></g></svg>
